<svg width="13" height="7" viewBox="0 0 13 7" fill="none" xmlns="http://www.w3.org/2000/svg">
<path d="M0.191905 0.188785L0.541497 0.546256C0.603943 0.485187 0.708667 0.485815 0.769862 0.545814L0.770271 0.546214L6.15069 5.80932L6.50034 6.15135L6.84998 5.80929L12.2304 0.545559L12.2308 0.54518C12.2921 0.485024 12.3963 0.484941 12.4578 0.54493C12.5143 0.600673 12.5137 0.685191 12.4583 0.739727C12.4582 0.739798 12.4581 0.739868 12.4581 0.739938L6.61432 6.45677L6.61396 6.45712C6.58844 6.48214 6.54865 6.49998 6.49996 6.5C6.45135 6.50002 6.41123 6.48227 6.38531 6.4571C6.38524 6.45703 6.38517 6.45697 6.38511 6.4569L0.541949 0.740571C0.541906 0.740529 0.541863 0.740486 0.541819 0.740444C0.486017 0.685602 0.48606 0.600609 0.541949 0.545814L0.191905 0.188785ZM0.191905 0.188785C-0.0639684 0.439653 -0.0639684 0.846732 0.191905 1.0976L6.03597 6.81482L12.8081 1.09697C13.064 0.846099 13.064 0.439652 12.8081 0.188151C12.5522 -0.0627165 12.1366 -0.0627165 11.8807 0.188151L6.50032 5.45189L1.11991 0.188785C0.864032 -0.0620828 0.448427 -0.0620828 0.191905 0.188785Z" stroke="#1C2027"/>
</svg>
