<svg width="8" height="14" viewBox="0 0 8 14" fill="none" xmlns="http://www.w3.org/2000/svg">
	<path
		d="M7.44077 6.86045L7.44113 6.8608C7.51931 6.93595 7.51995 7.06371 7.44108 7.14001C7.44104 7.14004 7.44101 7.14008 7.44097 7.14011L0.907926 13.4328C0.907865 13.4329 0.907803 13.433 0.907741 13.433C0.814621 13.5223 0.655602 13.5223 0.56246 13.4331C0.479815 13.3532 0.480556 13.2329 0.562229 13.1544L0.562641 13.154L6.57761 7.35975L6.95145 6.99963L6.57759 6.63953L0.561895 0.845238L0.561504 0.844862C0.479581 0.766125 0.479499 0.646214 0.561264 0.567393C0.655548 0.477235 0.814345 0.477916 0.907202 0.567162L7.44077 6.86045Z"
		stroke="white" />
</svg>