<svg width="32" height="32" viewBox="0 0 32 32" fill="none" xmlns="http://www.w3.org/2000/svg">
<circle cx="16" cy="16" r="16" fill="#F4F4F8"/>
<path d="M24.9672 12.1064V10.9047C24.9672 9.64306 23.9375 8.23173 22.5741 8.23173H16.5437L16.3625 7.90101C16.2189 7.62753 16.0018 7.39869 15.7353 7.23971C15.4688 7.08073 15.1632 6.99779 14.8522 7.00004H8.24241C7.94377 7.00359 7.64877 7.06553 7.37433 7.18231C7.09988 7.29909 6.85139 7.46841 6.64309 7.68057C6.4348 7.89273 6.27079 8.14355 6.16048 8.41866C6.05017 8.69377 5.99572 8.98775 6.00026 9.28376V21.7176C5.99591 22.0135 6.05049 22.3074 6.16088 22.5823C6.27127 22.8573 6.43531 23.1079 6.64358 23.32C6.85186 23.532 7.1003 23.7012 7.37465 23.8179C7.649 23.9346 7.94389 23.9965 8.24241 24H23.7576C24.0561 23.9965 24.351 23.9346 24.6254 23.8179C24.8997 23.7012 25.1482 23.532 25.3564 23.32C25.5647 23.1079 25.7287 22.8573 25.8391 22.5823C25.9495 22.3074 26.0041 22.0135 25.9998 21.7176V14.0894C25.9998 13.3681 25.6057 12.6481 24.97 12.1078L24.9672 12.1064ZM23.24 11.5062H18.2971L17.4733 9.94384H22.5947C22.8693 9.94384 23.2619 10.4542 23.2619 10.9047V11.5049L23.24 11.5062ZM24.2697 14.0581V21.6863C24.2728 21.8284 24.2213 21.9662 24.1257 22.0721C24.0301 22.1779 23.8976 22.2439 23.7549 22.2566H8.23967C8.09541 22.2478 7.96046 22.183 7.86408 22.0763C7.7677 21.9695 7.71765 21.8294 7.72478 21.6863V9.25382C7.72177 9.1118 7.77325 8.97394 7.86882 8.8681C7.9644 8.76225 8.09694 8.6963 8.23967 8.68357H14.8165L16.9982 12.7665C17.0742 12.9003 17.1841 13.0123 17.317 13.0913C17.4498 13.1702 17.6012 13.2136 17.7561 13.217H23.3855C23.7205 13.2183 24.2697 13.7587 24.2697 14.0581Z" fill="#1C2027" stroke="#F4F4F8" stroke-width="0.4"/>
</svg>
