<svg width="32" height="32" viewBox="0 0 32 32" fill="none" xmlns="http://www.w3.org/2000/svg">
<circle cx="16" cy="16" r="16" fill="#F4F4F8"/>
<path d="M25.1554 11.0629L17.2816 7.3414C16.9057 7.11916 16.4585 7 16.0003 7C15.5421 7 15.0949 7.11916 14.719 7.3414L6.84518 11.0629C6.58352 11.2232 6.37047 11.434 6.22354 11.6778C6.07661 11.9216 6 12.1915 6 12.4653C6 12.7391 6.07661 13.0089 6.22354 13.2527C6.37047 13.4965 6.58352 13.7073 6.84518 13.8676L6.92392 13.9101L9.53659 15.1607V20.9645C9.53659 21.9177 11.1543 24 15.9788 24C20.8033 24 22.421 21.9177 22.421 20.9645V15.1607L24.5684 14.1469L24.5682 16.8551C24.5682 17.0161 24.6436 17.1705 24.7778 17.2843C24.9121 17.3982 25.0941 17.4622 25.284 17.4622C25.4738 17.4622 25.6559 17.3982 25.7901 17.2843C25.9244 17.1705 25.9998 17.0161 25.9998 16.8551L26 12.4653C25.9989 12.1917 25.9219 11.9222 25.7751 11.6785C25.6284 11.4349 25.4161 11.224 25.1554 11.0629ZM20.9894 20.9645C20.9894 21.2013 19.9801 22.7858 15.9788 22.7858C11.9775 22.7858 10.9682 21.2013 10.9682 20.9645V15.8346L14.6904 17.5891C15.0692 17.8108 15.5186 17.9295 15.9788 17.9295C16.439 17.9295 16.8884 17.8108 17.2672 17.5891L20.9894 15.8346V20.9645ZM24.3322 12.872L16.4584 16.5874C16.3203 16.6705 16.1552 16.7152 15.986 16.7152C15.8167 16.7152 15.6516 16.6705 15.5135 16.5874L7.63972 12.872C7.56683 12.8237 7.50788 12.762 7.46733 12.6916C7.42678 12.6211 7.4057 12.5437 7.4057 12.4653C7.4057 12.3868 7.42678 12.3094 7.46733 12.239C7.50788 12.1685 7.56683 12.1068 7.63972 12.0585C7.63972 12.0585 15.5135 8.36132 15.5135 8.3431C15.6542 8.25979 15.8216 8.21511 15.9931 8.21511C16.1647 8.21511 16.3321 8.25979 16.4727 8.3431L24.3465 12.0585C24.4194 12.1068 24.4783 12.1685 24.5189 12.239C24.5594 12.3094 24.5805 12.3868 24.5805 12.4653C24.5805 12.5437 24.5594 12.6211 24.5189 12.6916C24.4783 12.762 24.4194 12.8237 24.3465 12.872H24.3322Z" fill="#1C2027" stroke="#F4F4F8" stroke-width="0.1"/>
</svg>
