<svg width="17" height="22" viewBox="0 0 17 22" fill="none" xmlns="http://www.w3.org/2000/svg">
<path d="M8.50001 1.00002C4.36449 1.00002 1 4.37667 1 8.52709C1 9.06844 1.05767 9.60912 1.17139 10.1341C1.22301 10.3726 1.45311 11.1094 1.47767 11.1749C1.88067 12.2328 2.47556 13.1347 3.22605 13.8781L2.16175 12.5528C2.24973 12.692 7.53065 20.4846 7.53065 20.4846C7.74448 20.7975 8.09831 21 8.49916 21C8.49948 21 8.49978 21 8.5001 21C8.50031 21 8.50063 21 8.50092 21C8.90179 21 9.25565 20.7975 9.46691 20.4885C9.67818 20.1796 15.0713 12.1584 15.0967 12.1114C15.5154 11.3511 15.8131 10.4632 15.9369 9.52016C15.4301 11.4099 15.7437 10.5262 15.8287 10.134C15.9376 9.65134 16 9.09702 16 8.52803C16 8.52769 16 8.52737 16 8.52703C16 4.37665 12.6355 1 8.49999 1L8.50001 1.00002ZM14.9789 9.94769C14.9039 10.2936 14.627 11.074 14.6052 11.1255C14.5223 11.3212 14.2872 11.7761 14.2638 11.8173C14.2169 11.8998 8.75062 19.992 8.75062 19.992C8.66942 20.1119 8.54836 20.1249 8.50003 20.1249C8.4517 20.1249 8.33069 20.1119 8.24955 19.9921C8.24955 19.9921 2.96485 12.1938 2.88144 12.0606L2.87413 12.0489C2.3913 11.2852 2.0543 10.381 1.9259 9.41043C2.27017 10.8091 2.06677 10.1579 2.02124 9.94782C1.92498 9.52137 1.86982 9.03165 1.86982 8.52897C1.86982 8.52833 1.86982 8.52767 1.86982 8.52703C1.86977 4.8592 4.8441 1.87511 8.50001 1.87511C12.1559 1.87511 15.1302 4.8592 15.1302 8.52707C15.1302 9.00571 15.0793 9.48373 14.9789 9.94767V9.94769Z" fill="#8D8DA2" stroke="#8D8DA2" stroke-width="0.3"/>
<path d="M8.49991 5.33671C7.65118 5.33671 6.85315 5.66842 6.25297 6.27072C5.65239 6.87332 5.32166 7.67466 5.32166 8.5271C5.32166 8.75957 5.34614 8.99046 5.39445 9.21341C5.47155 9.5695 5.60958 9.90807 5.80485 10.22C6.04016 10.5913 6.33683 10.9011 6.68366 11.1432L5.9325 10.4083C6.22339 10.807 6.60683 11.1374 7.04146 11.3636C7.49279 11.5985 7.98352 11.7177 8.5 11.7177C9.01626 11.7177 9.50689 11.5985 9.95832 11.3636C10.5841 11.0318 11.0769 10.5181 11.3759 9.89277L11.0694 10.4056C11.3053 10.0864 11.4835 9.70878 11.58 9.29934C11.3902 9.9083 11.5284 9.56933 11.6056 9.21272C11.6518 9.00741 11.6783 8.77162 11.6783 8.5296C11.6783 8.5287 11.6783 8.52783 11.6783 8.52693C11.6783 7.67474 11.3476 6.87345 10.747 6.27077C10.1466 5.66843 9.34862 5.33667 8.49993 5.33667L8.49991 5.33671ZM10.7557 9.02644C10.6717 9.40477 10.5039 9.73499 10.2725 10.0091C10.2986 10.0078 10.0961 10.2196 9.85917 10.385L10.3663 9.89025C10.1543 10.1809 9.87489 10.4217 9.55853 10.5864C9.23188 10.7564 8.87575 10.8426 8.49993 10.8426C8.12393 10.8426 7.76767 10.7564 7.44106 10.5864C7.12485 10.4218 6.84566 10.1812 6.63369 9.89061L6.28308 10.1495L6.63108 9.88707C6.59967 9.84402 6.51066 9.70457 6.49639 9.67985C6.33239 9.40071 6.22511 9.06958 6.19895 8.71573C6.21069 8.87766 6.19143 8.70599 6.19143 8.52984C6.19143 8.5289 6.19143 8.52795 6.19143 8.52704C6.19143 7.90897 6.43141 7.32767 6.86717 6.89042C7.30322 6.45286 7.88306 6.21191 8.49991 6.21191C9.11672 6.21191 9.6966 6.4529 10.1327 6.8905C10.5685 7.3278 10.8084 7.90903 10.8084 8.52716C10.8084 8.69697 10.7906 8.86497 10.7557 9.02646V9.02644Z" fill="#8D8DA2" stroke="#8D8DA2" stroke-width="0.3"/>
</svg>
