<svg width="20" height="20" viewBox="0 0 20 20" fill="none" xmlns="http://www.w3.org/2000/svg">
<path d="M8.81927 0C3.95637 0 0 3.95507 0 8.81642C0 13.6778 3.95641 17.6328 8.81927 17.6328C13.6821 17.6328 17.6386 13.6778 17.6386 8.81642C17.6386 3.95507 13.6822 0 8.81927 0ZM8.81927 16.1835C4.75349 16.1835 1.44578 12.8785 1.44578 8.81639C1.44578 4.75406 4.75349 1.44923 8.81927 1.44923C12.8851 1.44923 16.1928 4.75406 16.1928 8.81639C16.1928 12.8785 12.8851 16.1835 8.81927 16.1835Z" fill="#1C2027"/>
<path d="M19.7869 18.7616L15.0399 14.0273C14.7567 13.7452 14.2991 13.7464 14.0174 14.0299C13.736 14.3137 13.7372 14.7724 14.0201 15.0548L18.7671 19.7891C18.9083 19.9297 19.0924 20 19.277 20C19.4628 20 19.6483 19.9287 19.7895 19.7865C20.071 19.5026 20.0698 19.0439 19.7869 18.7616Z" fill="#1C2027"/>
</svg>
