<svg width="40" height="40" viewBox="0 0 40 40" fill="none" xmlns="http://www.w3.org/2000/svg">
<circle cx="20" cy="20" r="20" fill="#01142F"/>
<path d="M29.1002 16.0144C29.2333 15.5666 29.1002 15.2383 28.4704 15.2383H26.3844C25.8536 15.2383 25.6111 15.5223 25.4779 15.8343C25.4779 15.8343 24.4173 18.4524 22.9144 20.15C22.4292 20.644 22.2076 20.8 21.9432 20.8C21.8109 20.8 21.6188 20.644 21.6188 20.1962V16.0144C21.6188 15.4771 21.4657 15.2383 21.0233 15.2383H17.7454C17.4144 15.2383 17.2146 15.4867 17.2146 15.7236C17.2146 16.232 17.9661 16.3495 18.0432 17.7823V20.8905C18.0432 21.5713 17.9224 21.6955 17.656 21.6955C16.9493 21.6955 15.2294 19.0677 14.2088 16.0596C14.01 15.4752 13.8093 15.2392 13.2766 15.2392H11.1915C10.5951 15.2392 10.4762 15.5233 10.4762 15.8353C10.4762 16.3957 11.183 19.1688 13.7684 22.8365C15.492 25.341 17.9185 26.6987 20.1292 26.6987C21.4542 26.6987 21.6178 26.3973 21.6178 25.8774V23.9843C21.6178 23.3815 21.7444 23.2602 22.1638 23.2602C22.472 23.2602 23.0028 23.4181 24.2404 24.6246C25.6539 26.0555 25.8879 26.6977 26.6821 26.6977H28.7672C29.3627 26.6977 29.6604 26.3964 29.4892 25.8013C29.3018 25.2091 28.6264 24.3473 27.7304 23.3276C27.2434 22.746 26.5157 22.1201 26.2941 21.8072C25.9849 21.4037 26.0743 21.2256 26.2941 20.8674C26.295 20.8684 28.8357 17.2459 29.1002 16.0144Z" fill="white"/>
</svg>
